<svg id="Layer_1" data-name="Layer 1" xmlns="http://www.w3.org/2000/svg" viewBox="0 0 963.2 953.15"><defs><style>.cls-1{fill:#ee7c7c;}.cls-2{fill:#8ebc93;}.cls-3{fill:#8ea9ba;}.cls-4{fill:#e0b78f;}</style></defs><polygon class="cls-1" points="14.2 0 767.2 767.36 241.27 950 14.2 0"/><polygon class="cls-2" points="262.7 385.62 839.2 201 890.31 331.5 318.2 532 262.7 385.62"/><circle class="cls-3" cx="827.2" cy="583" r="136"/><path class="cls-4" d="M653.91,131.12c24-12.39,50.74-25.72,78.51-19.77a49.05,49.05,0,0,1,27.6,16.1,55.59,55.59,0,0,1,12,26.08,52.19,52.19,0,0,1-2.68,28.39c-4,10-12.05,17.6-18.78,25.81S737.79,225.81,739.82,237c2.19,12.09,12.45,21.82,22.94,27.29a53.45,53.45,0,0,0,70-18.74c1-1.64-1.56-3.15-2.59-1.52a51.2,51.2,0,0,1-27.1,21,50.33,50.33,0,0,1-34.89-1.5c-10.93-4.54-21.94-13.55-25.08-25.41-2.93-11.06,3.33-20.88,10.12-29S767.85,193.32,772,183.3a54.59,54.59,0,0,0,3.25-28.53,58.62,58.62,0,0,0-10.91-26.68,50.91,50.91,0,0,0-24.75-17.89c-26.54-8.92-54.21,1.7-77.92,13.59-3.1,1.56-6.19,3.15-9.27,4.74-1.72.89-.2,3.48,1.51,2.59Z" transform="translate(-478.12 -63.14)"/><path class="cls-4" d="M1045.24,950.3q18.19,26.49,38.47,51.45,5.76,7.1,11.69,14c1.25,1.47,3.37-.66,2.12-2.12q-20.65-24.27-39.31-50.13-5.26-7.32-10.38-14.76c-1.08-1.59-3.69-.09-2.59,1.51Z" transform="translate(-478.12 -63.14)"/><path class="cls-4" d="M1043,1008.94a173,173,0,0,0,44-32.08q5.44-5.48,10.38-11.42c1.22-1.47-.89-3.61-2.12-2.12a170.57,170.57,0,0,1-40.57,35.53q-6.45,4-13.24,7.5c-1.72.88-.2,3.46,1.52,2.59Z" transform="translate(-478.12 -63.14)"/><path class="cls-4" d="M1342.09,452.9,1383.2,421l-2.51-1.46a191.81,191.81,0,0,1-7.66,26.59,1.5,1.5,0,0,0,1.44,1.9,60.91,60.91,0,0,0,30.45-13l-2.5-1.46L1391.61,464a1.51,1.51,0,0,0,1.44,1.9,69.93,69.93,0,0,0,31.57-12.1l-2-2.05L1389.35,499h2.59c-4.09-8.17-10.27-15-16.86-21.26-7.4-7-15.15-13.67-22.75-20.46L1338.56,445c-1.44-1.28-3.57.84-2.12,2.12l24,21.44c7,6.22,14.16,12.29,20.31,19.35a60.59,60.59,0,0,1,8.6,12.63,1.52,1.52,0,0,0,2.59,0l33.22-47.3a1.51,1.51,0,0,0-2.05-2.05,66.92,66.92,0,0,1-30.06,11.69l1.45,1.9,10.81-30.4c.55-1.56-1.47-2.3-2.51-1.46a57.32,57.32,0,0,1-28.33,12.1l1.45,1.9a191.94,191.94,0,0,0,7.66-26.6,1.51,1.51,0,0,0-2.5-1.45L1340,450.78c-1.52,1.18.61,3.29,2.12,2.12Z" transform="translate(-478.12 -63.14)"/><path class="cls-4" d="M538,959.94q9.81-58.56,17.6-117.43,7.77-58.66,13.52-117.57,3.23-33.15,5.83-66.36l-2.56,1.06q32.4,39.5,67.59,76.58t72.93,71.51q21.21,19.37,43.2,37.85l1.06-2.57q-54.86,7.37-109.29,17.5T539.42,883.66q-30.22,7.27-60.24,15.42a1.51,1.51,0,0,0,.8,2.9q53.22-14.44,107.13-26.15t108.33-20.62q30.78-5.06,61.69-9.2c1.12-.15,2.17-1.62,1.06-2.56Q719.1,810.57,682.43,775t-70.64-73.78q-19.1-21.45-37.32-43.65c-.9-1.09-2.47-.1-2.56,1.06q-4.62,59-11.24,117.81-6.61,58.61-15.23,117-4.87,32.94-10.38,65.79c-.31,1.89,2.58,2.7,2.9.8Z" transform="translate(-478.12 -63.14)"/><path class="cls-4" d="M1081.72,427.25l58.11,61.55,58.1,61.56,32.56,34.5c1.33,1.4,3.45-.72,2.12-2.13l-58.1-61.55-58.1-61.55-32.57-34.5c-1.32-1.41-3.44.72-2.12,2.12Z" transform="translate(-478.12 -63.14)"/><path class="cls-4" d="M1077.89,179l-2.69,31.87c-.17,1.92,2.83,1.91,3,0l2.69-31.87c.17-1.92-2.83-1.91-3,0Z" transform="translate(-478.12 -63.14)"/><path class="cls-4" d="M1100.63,180.69l-4.39,29.76c-.28,1.89,2.61,2.71,2.89.8l4.4-29.77c.28-1.88-2.61-2.7-2.9-.79Z" transform="translate(-478.12 -63.14)"/><path class="cls-4" d="M1119.34,185.3l-3.94,31.95c-.23,1.91,2.77,1.9,3,0l3.94-31.95c.23-1.91-2.77-1.9-3,0Z" transform="translate(-478.12 -63.14)"/><path class="cls-4" d="M1132.87,191.77l-2.59,31.88c-.16,1.92,2.85,1.91,3,0l2.59-31.88c.15-1.92-2.85-1.91-3,0Z" transform="translate(-478.12 -63.14)"/><path class="cls-4" d="M1075.49,220.8a434,434,0,0,1,49.11-27.27c1.74-.83.22-3.42-1.52-2.59a434.7,434.7,0,0,0-49.1,27.27c-1.62,1-.12,3.63,1.51,2.59Z" transform="translate(-478.12 -63.14)"/></svg>