<svg id="Layer_1" data-name="Layer 1" xmlns="http://www.w3.org/2000/svg" viewBox="0 0 838.51 376.86"><defs><style>.cls-1{fill:#ee7c7c;}.cls-2{fill:#8ea9ba;}.cls-3{fill:#e0b78f;}.cls-4{fill:#8ebc93;}</style></defs><polygon class="cls-1" points="87.22 184.62 663.72 0 714.83 130.5 142.72 331 87.22 184.62"/><polygon class="cls-2" points="577.4 87.86 491.4 376.86 803.59 376.86 577.4 87.86"/><path class="cls-3" d="M871.42,482.27c24-12.4,50.74-25.73,78.51-19.78a49.11,49.11,0,0,1,27.6,16.1,55.59,55.59,0,0,1,12,26.08,52.09,52.09,0,0,1-2.69,28.39c-4,10-12,17.61-18.77,25.82S955.3,577,957.33,588.18c2.19,12.09,12.45,21.82,22.94,27.29a53.45,53.45,0,0,0,70-18.74c1-1.64-1.56-3.14-2.59-1.52a51.2,51.2,0,0,1-27.1,21,50.33,50.33,0,0,1-34.89-1.5c-10.93-4.54-22-13.55-25.08-25.41-2.93-11.06,3.33-20.88,10.12-29s14.58-15.84,18.73-25.86a54.57,54.57,0,0,0,3.25-28.53,58.53,58.53,0,0,0-10.91-26.67,50.86,50.86,0,0,0-24.75-17.9c-26.54-8.91-54.21,1.7-77.92,13.59q-4.65,2.34-9.27,4.75c-1.72.88-.2,3.47,1.51,2.59Z" transform="translate(-653.6 -264.14)"/><path class="cls-3" d="M1412.62,302.16c17.84-3.17,37.52-6.68,54.68,1.17,6.66,3.05,12.83,7.62,16.91,13.79a29.52,29.52,0,0,1,4.46,21.58,35.35,35.35,0,0,1-11,19.84,41.91,41.91,0,0,1-21.71,9.94,48.55,48.55,0,0,1-12.34.31,62.85,62.85,0,0,0-10-.57c-3,.19-6.17.85-8.51,2.91-3,2.66-3.08,6.66-2.53,10.36,3,20.14,6.23,40.24,9.35,60.35l1.15,7.4c.29,1.9,3.18,1.09,2.89-.8q-4.79-30.82-9.56-61.66c-.38-2.47-.89-5-1.11-7.46a7.36,7.36,0,0,1,1.18-5.3c1.82-2.32,5.21-2.75,8-2.84a100.88,100.88,0,0,1,10.56.73,52.07,52.07,0,0,0,12.34-.63,44.73,44.73,0,0,0,22.15-10.35,38,38,0,0,0,11.75-20,32.92,32.92,0,0,0-2.82-22.61,40,40,0,0,0-15.86-15.69c-16.3-9.26-35.56-7.64-53.36-4.69-2.47.41-4.93.85-7.4,1.29-1.9.33-1.09,3.22.8,2.89Z" transform="translate(-653.6 -264.14)"/><path class="cls-3" d="M1440.47,504.33V517a1.5,1.5,0,0,0,3,0V504.33a1.5,1.5,0,0,0-3,0Z" transform="translate(-653.6 -264.14)"/><path class="cls-3" d="M1099.7,390.08c-.76,26.18,19.68,47.23,39.18,61.84,21.12,15.82,45.73,26.62,71.19,33.24a267.9,267.9,0,0,0,44.12,7.46c1.92.17,1.91-2.84,0-3-25.81-2.24-51.52-8-75.35-18.24a190.49,190.49,0,0,1-33.4-18.41c-10.39-7.22-20.26-15.54-28.23-25.41-8.58-10.62-14.91-23.56-14.51-37.48.06-1.93-2.94-1.93-3,0Z" transform="translate(-653.6 -264.14)"/><path class="cls-3" d="M714,291.88a251.38,251.38,0,0,0-47.36,60.62Q661.34,362,656.88,372c-.79,1.75,1.8,3.27,2.59,1.51a249.07,249.07,0,0,1,41.45-63.89q7.26-8.11,15.21-15.57c1.42-1.33-.71-3.45-2.12-2.12Z" transform="translate(-653.6 -264.14)"/><path class="cls-3" d="M654.33,302.33a104,104,0,0,1,43,47.73c.78,1.76,3.37.24,2.59-1.51a107,107,0,0,0-44-48.81,1.5,1.5,0,0,0-1.51,2.59Z" transform="translate(-653.6 -264.14)"/><circle class="cls-4" cx="194.4" cy="131.86" r="23"/></svg>